<svg xmlns="http://www.w3.org/2000/svg" width="22" height="18" viewBox="0 0 22 18">
  <defs>
    <style>
      .cls-1 {
        fill: #ee5382;
      }
    </style>
  </defs>
  <g id="组_2" data-name="组 2" transform="translate(-68.25 -156.826)">
    <path id="路径_1" data-name="路径 1" class="cls-1" d="M511.228,264.9H509.2a.635.635,0,1,1,0-1.27h2.024a.635.635,0,0,1,0,1.27Z" transform="translate(-429.426 -104.155)"/>
    <path id="路径_2" data-name="路径 2" class="cls-1" d="M89.963,160.017a1.42,1.42,0,0,0-1.144-.567H84.324a.629.629,0,1,0,0,1.258h4.495a.162.162,0,0,1,.156.206L87,167.63a.652.652,0,0,1-.623.464H75.79a.651.651,0,0,1-.644-.556l-.953-6.83h3.229a.629.629,0,1,0,0-1.258H74.01l-.191-1.248a1.593,1.593,0,0,0-1.581-1.377H68.883a.629.629,0,1,0,0,1.258h3.354a.326.326,0,0,1,.324.284c0,.006,0,.011,0,.018l.274,1.785,1.052,7.541a1.92,1.92,0,0,0,1.9,1.641H86.373a1.928,1.928,0,0,0,1.84-1.368l1.977-6.716A1.394,1.394,0,0,0,89.963,160.017Zm-12.6,14.808a2.377,2.377,0,1,1,2.4-2.377A2.389,2.389,0,0,1,77.365,174.826Zm0-3.5a1.119,1.119,0,1,0,1.128,1.119A1.124,1.124,0,0,0,77.365,171.329Zm7.288,3.5a2.377,2.377,0,1,1,2.4-2.377A2.389,2.389,0,0,1,84.652,174.826Zm0-3.5a1.119,1.119,0,1,0,1.128,1.119A1.124,1.124,0,0,0,84.652,171.329Z"/>
    <path id="路径_3" data-name="路径 3" class="cls-1" d="M422.814,503.8h-7.408a.635.635,0,0,1,0-1.27h7.408a.635.635,0,1,1,0,1.27Z" transform="translate(-337.956 -337.217)"/>
  </g>
</svg>
