<svg xmlns="http://www.w3.org/2000/svg" width="18" height="8.809" viewBox="0 0 18 8.809">
  <defs>
    <style>
      .cls-1 {
        fill: #999;
      }
    </style>
  </defs>
  <path id="小眼睛开" class="cls-1" d="M2.133,3.8A7.708,7.708,0,0,1,.044,1.21.554.554,0,0,1,1.057.76C1.142.93,3,4.926,9,4.926s7.853-4,7.938-4.165a.536.536,0,0,1,.732-.282.536.536,0,0,1,.282.732A7.7,7.7,0,0,1,15.858,3.8l1.019,2.808a.584.584,0,0,1-.339.731c-.056,0-.14.029-.2.029A.577.577,0,0,1,15.808,7L14.9,4.5a9.915,9.915,0,0,1-3.211,1.283L12.2,8.585a.55.55,0,0,1-.451.648h-.112a.572.572,0,0,1-.563-.479l-.5-2.793A13.633,13.633,0,0,1,9,6.052a13.561,13.561,0,0,1-1.581-.09l-.5,2.82a.6.6,0,0,1-.563.451H6.264a.55.55,0,0,1-.45-.648l.5-2.8A9.918,9.918,0,0,1,3.093,4.5L2.183,7a.577.577,0,0,1-.535.365.488.488,0,0,1-.2-.028.574.574,0,0,1-.339-.732L2.133,3.8Z" transform="translate(-0.001 -0.425)"/>
</svg>
