<svg xmlns="http://www.w3.org/2000/svg" width="18.002" height="13.511" viewBox="0 0 18.002 13.511">
  <defs>
    <style>
      .cls-1 {
        fill: #999;
      }
    </style>
  </defs>
  <g id="睁眼_1_" data-name="睁眼 (1)" transform="translate(-0.427 -0.299)">
    <path id="路径_14445" data-name="路径 14445" class="cls-1" d="M460.813,295.424a2.858,2.858,0,1,0,2.829,2.858A2.869,2.869,0,0,0,460.813,295.424Zm0,4.677a1.849,1.849,0,0,1-1.8-1.82,1.8,1.8,0,1,1,1.8,1.819Z" transform="translate(-451.514 -291.228)"/>
    <path id="路径_14446" data-name="路径 14446" class="cls-1" d="M9.427.3c-5.015,0-9,5.716-9,6.755s3.986,6.756,9,6.756,9-5.976,9-6.756S14.314.3,9.427.3Zm5.4,9.874c-1.286,1.169-3.215,2.6-5.4,2.6a6.693,6.693,0,0,1-2.957-.779A10.406,10.406,0,0,1,3.9,10.172,9.267,9.267,0,0,1,1.454,7.054,5.934,5.934,0,0,1,2.1,5.885,11.341,11.341,0,0,1,3.9,3.806c1.286-1.169,3.215-2.6,5.4-2.6s4.115,1.429,5.4,2.6a11.342,11.342,0,0,1,1.8,2.079,5.643,5.643,0,0,1,.771,1.169,5.788,5.788,0,0,1-.643,1.04,20.457,20.457,0,0,1-1.8,2.079Z" transform="translate(0)"/>
  </g>
</svg>
