<svg id="weixin" xmlns="http://www.w3.org/2000/svg" width="20" height="20" viewBox="0 0 20 20">
  <defs>
    <style>
      .cls-1 {
        fill: #46bb36;
      }
    </style>
  </defs>
  <path id="路径_14442" data-name="路径 14442" class="cls-1" d="M9.99,0a10,10,0,1,0,7.078,2.925A10,10,0,0,0,9.99,0ZM8.22,12.354a7.336,7.336,0,0,1-1.5-.212l-1.5.75L5.649,11.6A3.507,3.507,0,0,1,3.937,8.717C3.937,6.684,5.866,5.1,8.22,5.1a4.275,4.275,0,0,1,4.32,3,3.622,3.622,0,0,0-.414,0A3.5,3.5,0,0,0,8.5,11.464a3.073,3.073,0,0,0,.129.895,3.425,3.425,0,0,1-.4,0Zm6.317,1.5.321,1.071-1.174-.647a5.416,5.416,0,0,1-1.267.207,3.37,3.37,0,0,1-3.621-3.1,3.383,3.383,0,0,1,3.621-3.1,3.443,3.443,0,0,1,3.621,3.1,3.249,3.249,0,0,1-1.5,2.463Z" transform="translate(0 0)"/>
  <path id="路径_14443" data-name="路径 14443" class="cls-1" d="M317.718,349.029a.724.724,0,1,0,.727-.721A.727.727,0,0,0,317.718,349.029Zm5.535,3.727a.26.26,0,1,0-.031,0Zm-1.926-3.727a.727.727,0,0,0,.7.745.714.714,0,0,0,.739-.7v-.043a.721.721,0,1,0-1.441,0Zm4.808,3.727a.26.26,0,1,0-.031,0Z" transform="translate(-312.348 -341.871)"/>
</svg>
